<svg xmlns:xlink="http://www.w3.org/1999/xlink" aria-hidden="true" class="rkbrtb0 rkbrtb1 rkbrtb3 _1v25wbq5k" fill="currentColor" height="48" viewBox="0 0 48 48" width="48" xmlns="http://www.w3.org/2000/svg"><path d="M12 27C13.6569 27 15 25.6569 15 24C15 22.3431 13.6569 21 12 21C10.3431 21 9 22.3431 9 24C9 25.6569 10.3431 27 12 27Z" fill="#FFFFFF"></path><path d="M24 27C25.6569 27 27 25.6569 27 24C27 22.3431 25.6569 21 24 21C22.3431 21 21 22.3431 21 24C21 25.6569 22.3431 27 24 27Z" fill="#FFFFFF"></path><path d="M39 24C39 25.6569 37.6569 27 36 27C34.3431 27 33 25.6569 33 24C33 22.3431 34.3431 21 36 21C37.6569 21 39 22.3431 39 24Z" fill="#FFFFFF"></path></svg>